<?xml version="1.0" encoding="utf-8"?>
<svg width="24" height="24" viewBox="0 0 24 24" xmlns="http://www.w3.org/2000/svg" xmlns:bx="https://boxy-svg.com">
  <rect width="24" height="24" stroke="none" fill="#000000" opacity="0"/>
  <path d="M 13.939 21.084 C 13.709 21.826 12.842 22 12 22 C 11.159 22 10.291 21.826 10.062 21.084 C 9.72 19.974 9.142 17.192 9.142 15.897 C 9.142 14.523 10.535 14.187 12 14.187 C 13.466 14.187 14.858 14.523 14.858 15.897 C 14.858 17.183 14.283 19.965 13.939 21.084 Z M 9.003 13.272 C 8.168 12.557 7.665 11.546 7.719 10.436 C 7.809 8.494 9.612 6.922 11.831 6.846 C 14.271 6.764 16.286 8.477 16.286 10.594 C 16.286 11.641 15.793 12.591 14.997 13.272 C 14.878 13.374 14.891 13.543 15.025 13.631 C 15.441 13.895 15.761 14.229 15.975 14.621 C 16.052 14.764 16.263 14.803 16.395 14.695 C 17.682 13.638 18.474 12.125 18.427 10.454 C 18.345 7.477 15.587 5.056 12.185 4.971 C 8.557 4.881 5.572 7.438 5.572 10.594 C 5.572 12.209 6.355 13.668 7.605 14.695 C 7.737 14.803 7.948 14.764 8.027 14.621 C 8.24 14.229 8.559 13.895 8.975 13.631 C 9.109 13.543 9.122 13.374 9.003 13.272 Z M 12 2 C 6.474 2 2 5.913 2 10.751 C 2 14.265 4.347 17.221 7.614 18.617 C 7.806 18.7 8.027 18.557 7.995 18.371 C 7.888 17.765 7.8 17.163 7.754 16.639 C 7.746 16.567 7.702 16.502 7.634 16.463 C 5.517 15.22 4.125 13.102 4.143 10.706 C 4.169 6.947 7.682 3.884 11.979 3.875 C 16.321 3.864 19.858 6.953 19.858 10.751 C 19.858 13.169 18.422 15.3 16.257 16.525 C 16.213 17.074 16.12 17.721 16.006 18.371 C 15.975 18.557 16.194 18.7 16.386 18.617 C 19.645 17.223 22 14.274 22 10.751 C 22 5.914 17.527 2 12 2 Z M 12 8.249 C 10.422 8.249 9.142 9.368 9.142 10.751 C 9.142 12.131 10.422 13.249 12 13.249 C 13.579 13.249 14.858 12.131 14.858 10.751 C 14.858 9.368 13.579 8.249 12 8.249 Z" style="fill: rgb(146, 146, 146);" bx:origin="-1.09575 -0.7138"/>
</svg>