<?xml version="1.0" encoding="utf-8"?>
<svg width="24" height="24" viewBox="0 0 24 24" xmlns="http://www.w3.org/2000/svg" xmlns:xlink="http://www.w3.org/1999/xlink">
  <defs>
    <linearGradient id="gradient-ccf">
      <stop offset="0" style="stop-color: rgb(239, 170, 34);"/>
      <stop offset="0.36" style="stop-color: rgb(239, 170, 34);"/>
      <stop offset="0.65" style="stop-color: rgb(218, 109, 41);"/>
    </linearGradient>
    <linearGradient id="gradient-ccf-1" gradientUnits="userSpaceOnUse" x1="24.26" y1="186.32" x2="24.26" y2="213.671" xlink:href="#gradient-ccf"/>
    <linearGradient id="gradient-ccf-2" gradientUnits="userSpaceOnUse" x1="375.74" y1="186.32" x2="375.74" y2="213.671" xlink:href="#gradient-ccf"/>
    <linearGradient id="gradient-ccf-3" gradientUnits="userSpaceOnUse" x1="112.13" y1="104.27" x2="112.13" y2="295.726" xlink:href="#gradient-ccf"/>
    <linearGradient id="gradient-ccf-4" gradientUnits="userSpaceOnUse" x1="287.87" y1="104.26" x2="287.87" y2="295.72" xlink:href="#gradient-ccf"/>
    <linearGradient id="gradient-ccf-5" gradientUnits="userSpaceOnUse" x1="200" y1="24.25" x2="200" y2="375.732" xlink:href="#gradient-ccf"/>
    <linearGradient id="gradient-ccf-6" gradientUnits="userSpaceOnUse" x1="24.26" y1="186.32" x2="24.26" y2="213.671" xlink:href="#gradient-ccf"/>
    <linearGradient id="gradient-ccf-7" gradientUnits="userSpaceOnUse" x1="375.74" y1="186.32" x2="375.74" y2="213.671" xlink:href="#gradient-ccf"/>
    <linearGradient id="gradient-ccf-8" gradientUnits="userSpaceOnUse" x1="112.13" y1="104.27" x2="112.13" y2="295.726" xlink:href="#gradient-ccf"/>
    <linearGradient id="gradient-ccf-9" gradientUnits="userSpaceOnUse" x1="287.87" y1="104.26" x2="287.87" y2="295.72" xlink:href="#gradient-ccf"/>
    <linearGradient id="gradient-ccf-10" gradientUnits="userSpaceOnUse" x1="200" y1="24.25" x2="200" y2="375.732" xlink:href="#gradient-ccf"/>
  </defs>
  <rect width="24" height="24" stroke="none" fill="#000000" opacity="0"/>
  <g stroke-linecap="round" stroke-width="48.5" transform="matrix(0.042163, 0, 0, 0.051314, 3.701367, 1.886807)" style="">
    <path d="m24.26 186.32v27.351" style="fill: url(#gradient-ccf-1); stroke: url(#gradient-ccf-6);"/>
    <path d="m375.74 186.32v27.351" style="fill: url(#gradient-ccf-2); stroke: url(#gradient-ccf-7);"/>
    <path d="m112.13 104.27v89.46m0 74.645v27.351" style="fill: url(#gradient-ccf-3); stroke: url(#gradient-ccf-8);"/>
    <path d="m287.87 206.26v89.46m0-191.46v27.351" style="fill: url(#gradient-ccf-4); stroke: url(#gradient-ccf-9);"/>
    <path d="m200 127.06v145.87m0-248.68v27.351m0 296.78v27.351" style="fill: url(#gradient-ccf-5); stroke: url(#gradient-ccf-10);"/>
  </g>
</svg>