<?xml version="1.0" encoding="utf-8"?>
<svg width="24" height="24" viewBox="0 0 24 24" xmlns="http://www.w3.org/2000/svg" xmlns:xlink="http://www.w3.org/1999/xlink">
  <defs>
    <linearGradient id="gradient-ccf">
      <stop offset="0" style="stop-color: rgb(239, 170, 34);"/>
      <stop offset="0.36" style="stop-color: rgb(239, 170, 34);"/>
      <stop offset="0.65" style="stop-color: rgb(218, 109, 41);"/>
    </linearGradient>
    <linearGradient id="gradient-ccf-1" gradientUnits="userSpaceOnUse" x1="11.41" y1="4.087" x2="11.41" y2="20.367" gradientTransform="matrix(1.264939, 0, 0, 1.237333, -2.54417, -3.380649)" xlink:href="#gradient-ccf"/>
    <linearGradient id="gradient-ccf-2" gradientUnits="userSpaceOnUse" x1="12.7" y1="12.784" x2="12.7" y2="29.608" gradientTransform="matrix(0.728899, 0, 0, 0.69768, 1.970684, -2.827256)" xlink:href="#gradient-ccf"/>
  </defs>
  <rect width="24" height="24" stroke="none" fill="#000000" opacity="0"/>
  <ellipse style="fill: none; stroke: url(#gradient-ccf-1); stroke-width: 1.5px;" cx="12" cy="12" rx="10" ry="10"/>
  <path d="M 15.018 16.51 C 15.614 16.347 16.034 15.95 16.206 15.39 L 16.257 15.225 L 16.264 10.809 C 16.268 7.502 16.264 6.372 16.244 6.311 C 16.224 6.245 16.191 6.191 16.148 6.147 C 16.085 6.111 16.009 6.092 15.924 6.092 C 15.864 6.092 15.658 6.119 15.467 6.151 C 14.617 6.296 9.613 7.229 9.527 7.258 C 9.396 7.304 9.264 7.413 9.202 7.528 L 9.149 7.626 C 9.149 7.626 9.125 14.547 9.086 14.625 C 9.028 14.744 8.898 14.856 8.779 14.893 C 8.723 14.909 8.5 14.956 8.282 14.996 C 7.278 15.183 6.906 15.318 6.59 15.608 C 6.411 15.772 6.278 15.997 6.221 16.233 C 6.166 16.458 6.185 16.795 6.262 17 C 6.344 17.214 6.476 17.397 6.648 17.542 C 6.805 17.655 6.99 17.738 7.198 17.789 C 7.658 17.899 8.518 17.776 8.957 17.538 C 9.142 17.438 9.379 17.23 9.501 17.057 C 9.55 16.99 9.624 16.853 9.664 16.754 C 9.808 16.405 9.812 10.204 9.831 10.126 C 9.861 9.993 9.958 9.896 10.092 9.864 C 10.213 9.834 15.031 8.943 15.166 8.925 C 15.286 8.909 15.398 8.946 15.46 9.016 C 15.496 9.035 15.527 9.059 15.549 9.09 C 15.588 9.144 15.59 9.252 15.596 11.215 C 15.603 13.475 15.606 13.422 15.475 13.565 C 15.379 13.668 15.26 13.709 14.77 13.802 C 14.025 13.944 13.77 14.012 13.484 14.143 C 13.128 14.305 12.93 14.484 12.778 14.78 C 12.669 14.99 12.629 15.147 12.629 15.356 C 12.63 15.728 12.767 16.02 13.077 16.305 C 13.106 16.332 13.134 16.356 13.162 16.379 C 13.319 16.492 13.479 16.561 13.679 16.604 C 13.981 16.669 14.596 16.626 15.018 16.51 Z" style="fill: url(#gradient-ccf-2);"/>
</svg>