<?xml version="1.0" encoding="utf-8"?>
<svg width="24" height="24" viewBox="0 0 24 24" xmlns="http://www.w3.org/2000/svg" xmlns:xlink="http://www.w3.org/1999/xlink">
  <defs>
    <linearGradient id="gradient-ccf">
      <stop offset="0" style="stop-color: rgb(239, 170, 34);"/>
      <stop offset="0.36" style="stop-color: rgb(239, 170, 34);"/>
      <stop offset="0.65" style="stop-color: rgb(218, 109, 41);"/>
    </linearGradient>
    <linearGradient id="gradient-ccf-1" gradientUnits="userSpaceOnUse" x1="12" y1="3.75" x2="12" y2="20.25" gradientTransform="matrix(1, 0, 0, 1, -0.000031, -0.000823)" xlink:href="#gradient-ccf"/>
  </defs>
  <rect width="24" height="24" stroke="none" fill="#000000" opacity="0"/>
  <path fill-rule="evenodd" d="M 3.75 4.499 C 3.75 4.085 4.086 3.749 4.5 3.749 L 5.25 3.749 C 13.534 3.749 20.25 10.465 20.25 18.749 L 20.25 19.499 C 20.25 19.913 19.915 20.249 19.5 20.249 L 18.75 20.249 C 18.336 20.249 18 19.913 18 19.499 L 18 18.749 C 18 11.707 12.292 5.999 5.25 5.999 L 4.5 5.999 C 4.086 5.999 3.75 5.663 3.75 5.249 L 3.75 4.499 Z M 3.75 11.249 C 3.75 10.835 4.086 10.499 4.5 10.499 L 5.25 10.499 C 9.807 10.499 13.5 14.193 13.5 18.749 L 13.5 19.499 C 13.5 19.913 13.165 20.249 12.75 20.249 L 12 20.249 C 11.586 20.249 11.25 19.913 11.25 19.499 L 11.25 18.749 C 11.25 15.435 8.564 12.749 5.25 12.749 L 4.5 12.749 C 4.086 12.749 3.75 12.413 3.75 11.999 L 3.75 11.249 Z M 3.75 18.749 C 3.75 17.594 5 16.873 6 17.45 C 6.465 17.718 6.75 18.213 6.75 18.749 C 6.75 19.904 5.5 20.625 4.5 20.048 C 4.036 19.78 3.75 19.285 3.75 18.749 Z" clip-rule="evenodd" style="fill: url(#gradient-ccf-1);"/>
</svg>