<?xml version="1.0" encoding="utf-8"?>
<svg viewBox="0 0 24 24" width="0px" height="0px" xmlns="http://www.w3.org/2000/svg" xmlns:bx="https://boxy-svg.com">
  <defs>
    <style>.cls-1{fill:#252121}</style>
  </defs>
  <path class="cls-1" d="M 8.582 14.072 C 8.297 14.072 8.015 14.014 7.753 13.899 C 7.475 13.779 7.221 13.609 7 13.398 L 7 14.629 C 7.22 14.802 7.468 14.933 7.733 15.016 C 8.043 15.109 8.365 15.153 8.688 15.148 C 8.958 15.149 9.228 15.102 9.483 15.009 C 9.729 14.922 9.954 14.783 10.144 14.601 C 10.556 14.224 10.762 13.731 10.761 13.122 C 10.761 12.693 10.651 12.329 10.429 12.03 C 10.194 11.724 9.872 11.502 9.508 11.396 L 10.732 8.983 L 10.732 8.954 L 7.049 8.954 L 7.049 10.065 L 9.064 10.065 L 8.041 12.067 L 8.041 12.098 C 8.518 12.084 8.901 12.167 9.189 12.346 C 9.466 12.502 9.634 12.805 9.624 13.13 C 9.624 13.442 9.534 13.677 9.354 13.835 C 9.174 13.994 8.916 14.073 8.582 14.072 Z M 15.606 9.075 C 15.013 8.777 14.319 8.777 13.726 9.075 C 13.432 9.23 13.177 9.452 12.979 9.724 C 12.761 10.026 12.6 10.366 12.501 10.728 C 12.276 11.559 12.276 12.438 12.501 13.269 C 12.6 13.63 12.762 13.97 12.979 14.271 C 13.177 14.544 13.432 14.766 13.726 14.922 C 14.32 15.219 15.013 15.219 15.606 14.922 C 15.9 14.766 16.156 14.544 16.354 14.271 C 16.571 13.97 16.732 13.63 16.831 13.269 C 17.056 12.438 17.056 11.559 16.831 10.728 C 16.732 10.366 16.571 10.026 16.354 9.724 C 16.156 9.452 15.9 9.23 15.606 9.075 Z M 15.51 13.474 C 15.321 13.835 15.039 14.015 14.666 14.015 C 14.287 14.015 14 13.821 13.808 13.43 C 13.628 13.105 13.537 12.629 13.538 12 C 13.539 11.372 13.635 10.879 13.827 10.521 C 14.02 10.164 14.3 9.985 14.666 9.985 C 15.026 9.985 15.304 10.166 15.5 10.531 C 15.697 10.896 15.794 11.384 15.794 12 C 15.794 12.616 15.699 13.112 15.51 13.474 Z" style=""/>
  <path class="cls-1" d="M 21.804 10.473 L 20.404 10.741 C 21.696 16.976 15.5 22.221 9.252 20.182 C 5.189 18.856 2.769 14.84 3.588 10.783 C 4.462 6.442 8.734 3.557 13.234 4.197 L 12.919 5.045 L 16.64 4.615 L 14.05 2.005 L 13.727 2.878 C 8.374 1.976 3.226 5.368 2.185 10.521 C 1.132 15.744 4.671 20.801 10.09 21.816 C 10.726 21.936 11.372 21.996 12.02 21.996 C 18.318 21.981 23.034 16.426 21.804 10.473 Z" style="" bx:origin="-0.49997 -0.500225"/>
</svg>