<?xml version="1.0" encoding="utf-8"?>
<svg width="24" height="24" viewBox="0 0 24 24" xmlns="http://www.w3.org/2000/svg" xmlns:xlink="http://www.w3.org/1999/xlink">
  <defs>
    <linearGradient id="gradient-ccf">
      <stop offset="0" style="stop-color: rgb(239, 170, 34);"/>
      <stop offset="0.36" style="stop-color: rgb(239, 170, 34);"/>
      <stop offset="0.65" style="stop-color: rgb(218, 109, 41);"/>
    </linearGradient>
    <linearGradient id="gradient-ccf-0" gradientUnits="userSpaceOnUse" x1="-37.558" y1="29.817" x2="-37.558" y2="48.749" gradientTransform="matrix(1, 0, 0, 1, 49.364377, -27.413811)" xlink:href="#gradient-ccf"/>
  </defs>
  <rect width="24" height="24" stroke="none" fill="#000000" opacity="0"/>
  <path d="M 11.806 2.403 C 6.966 2.403 3.038 6.644 3.038 11.869 C 3.038 17.094 6.966 21.335 11.806 21.335 C 16.646 21.335 20.574 17.094 20.574 11.869 C 20.574 6.644 16.646 2.403 11.806 2.403 Z" style="fill: url(#gradient-ccf-0);"/>
  <path d="M 17.803 11.017 C 17.619 11.017 17.506 10.967 17.347 10.868 C 14.83 9.246 10.329 8.856 7.416 9.734 C 7.289 9.772 7.13 9.833 6.96 9.833 C 6.493 9.833 6.136 9.44 6.136 8.933 C 6.136 8.413 6.433 8.119 6.752 8.02 C 7.996 7.627 9.389 7.44 10.905 7.44 C 13.486 7.44 16.191 8.02 18.167 9.265 C 18.443 9.437 18.623 9.673 18.623 10.127 C 18.623 10.646 18.234 11.017 17.803 11.017 Z M 16.707 13.925 C 16.523 13.925 16.399 13.837 16.272 13.765 C 14.063 12.352 10.768 11.784 7.837 12.643 C 7.667 12.692 7.575 12.742 7.416 12.742 C 7.038 12.742 6.73 12.41 6.73 12.001 C 6.73 11.593 6.914 11.322 7.278 11.211 C 8.261 10.914 9.265 10.692 10.736 10.692 C 13.03 10.692 15.247 11.307 16.993 12.429 C 17.28 12.612 17.393 12.849 17.393 13.181 C 17.389 13.593 17.092 13.925 16.707 13.925 Z M 15.756 16.429 C 15.607 16.429 15.516 16.38 15.378 16.291 C 13.172 14.856 10.605 14.795 8.07 15.357 C 7.932 15.395 7.752 15.456 7.649 15.456 C 7.307 15.456 7.091 15.162 7.091 14.853 C 7.091 14.46 7.307 14.272 7.571 14.211 C 10.467 13.521 13.426 13.582 15.95 15.211 C 16.166 15.36 16.293 15.494 16.293 15.841 C 16.293 16.189 16.042 16.429 15.756 16.429 Z" style="fill: rgb(255, 255, 255);"/>
</svg>